<svg width="7" height="13" viewBox="0 0 7 13" fill="none" xmlns="http://www.w3.org/2000/svg">
<path d="M1.53025 0.969372L6.53025 5.96937C6.60017 6.03905 6.65564 6.12184 6.6935 6.21301C6.73135 6.30417 6.75084 6.40191 6.75084 6.50062C6.75084 6.59933 6.73135 6.69707 6.6935 6.78824C6.65564 6.8794 6.60017 6.96219 6.53025 7.03187L1.53025 12.0319C1.38935 12.1728 1.19825 12.2519 0.998996 12.2519C0.799739 12.2519 0.608642 12.1728 0.467746 12.0319C0.32685 11.891 0.247695 11.6999 0.247695 11.5006C0.247695 11.3014 0.32685 11.1103 0.467746 10.9694L4.93712 6.5L0.467122 2.03062C0.326225 1.88973 0.24707 1.69863 0.24707 1.49937C0.24707 1.30011 0.326225 1.10902 0.467122 0.968122C0.608018 0.827227 0.799114 0.74807 0.998372 0.74807C1.19763 0.74807 1.38873 0.827227 1.52962 0.968122L1.53025 0.969372Z" fill="black" fill-opacity="0.6"/>
</svg>
