<svg width="14" height="14" viewBox="0 0 14 14" fill="none" xmlns="http://www.w3.org/2000/svg">
<path d="M13.2887 11.9617C13.4649 12.1378 13.5638 12.3767 13.5638 12.6258C13.5638 12.8749 13.4649 13.1137 13.2887 13.2898C13.1126 13.466 12.8737 13.5649 12.6247 13.5649C12.3756 13.5649 12.1367 13.466 11.9606 13.2898L7.00045 8.32812L2.03874 13.2883C1.86261 13.4644 1.62374 13.5633 1.37467 13.5633C1.1256 13.5633 0.886731 13.4644 0.710611 13.2883C0.53449 13.1122 0.435547 12.8733 0.435547 12.6242C0.435547 12.3751 0.53449 12.1363 0.710611 11.9602L5.67233 7L0.712173 2.03828C0.536053 1.86216 0.437109 1.62329 0.437109 1.37422C0.437109 1.12515 0.536053 0.886277 0.712173 0.710157C0.888293 0.534036 1.12716 0.435093 1.37624 0.435093C1.62531 0.435093 1.86418 0.534036 2.0403 0.710157L7.00045 5.67188L11.9622 0.709375C12.1383 0.533255 12.3772 0.434312 12.6262 0.434312C12.8753 0.434312 13.1142 0.533255 13.2903 0.709375C13.4664 0.885496 13.5654 1.12437 13.5654 1.37344C13.5654 1.62251 13.4664 1.86138 13.2903 2.0375L8.32858 7L13.2887 11.9617Z" fill="white"/>
</svg>
