<svg width="66" height="49" viewBox="0 0 66 49" fill="none" xmlns="http://www.w3.org/2000/svg">
<g filter="url(#filter0_dd_107_4154)">
<rect x="9.84277" y="5" width="46.6143" height="30.0304" rx="5.37857" fill="white"/>
<rect x="9.73072" y="4.88795" width="46.8384" height="30.2545" rx="5.49062" stroke="#D6DCE5" stroke-width="0.224107"/>
<path d="M24.92 16.0815C25.231 15.6925 25.4421 15.1703 25.3864 14.6365C24.9311 14.6592 24.3756 14.9369 24.054 15.3262C23.7652 15.6595 23.5096 16.2037 23.5762 16.715C24.0873 16.7594 24.5978 16.4596 24.92 16.0815Z" fill="#000008"/>
<path d="M25.3806 16.8149C24.6385 16.7707 24.0074 17.2361 23.653 17.2361C23.2984 17.2361 22.7557 16.8372 22.1687 16.8479C21.4047 16.8591 20.6957 17.2911 20.308 17.9782C19.5106 19.3526 20.0976 21.3914 20.8731 22.5108C21.2497 23.0646 21.7035 23.6744 22.3015 23.6525C22.8666 23.6304 23.088 23.2867 23.7749 23.2867C24.4612 23.2867 24.6607 23.6525 25.2588 23.6414C25.879 23.6304 26.2668 23.0874 26.6434 22.533C27.0754 21.9017 27.2523 21.2921 27.2634 21.2586C27.2523 21.2476 26.0674 20.793 26.0564 19.43C26.0452 18.2887 26.9867 17.7458 27.031 17.7122C26.4993 16.9258 25.6686 16.8372 25.3806 16.8149Z" fill="#000008"/>
<path d="M31.8427 15.2703C33.4557 15.2703 34.579 16.3822 34.579 18.0011C34.579 19.6257 33.4326 20.7434 31.8022 20.7434H30.0163V23.5835H28.7259V15.2703L31.8427 15.2703ZM30.0163 19.6602H31.4969C32.6203 19.6602 33.2597 19.0554 33.2597 18.0068C33.2597 16.9584 32.6203 16.3592 31.5026 16.3592H30.0163V19.6602Z" fill="#000008"/>
<path d="M34.9161 21.861C34.9161 20.8009 35.7284 20.1499 37.1688 20.0693L38.8278 19.9714V19.5048C38.8278 18.8307 38.3727 18.4274 37.6124 18.4274C36.8921 18.4274 36.4427 18.773 36.3333 19.3146H35.1581C35.2272 18.22 36.1604 17.4134 37.6584 17.4134C39.1274 17.4134 40.0664 18.1912 40.0664 19.4068V23.5835H38.8738V22.5869H38.8451C38.4938 23.2609 37.7275 23.6872 36.9325 23.6872C35.7457 23.6872 34.9161 22.9498 34.9161 21.861ZM38.8278 21.3137V20.8356L37.3357 20.9277C36.5925 20.9796 36.172 21.308 36.172 21.8265C36.172 22.3564 36.6098 22.7021 37.2781 22.7021C38.148 22.7021 38.8278 22.1029 38.8278 21.3137Z" fill="#000008"/>
<path d="M41.1923 25.8131V24.8049C41.2843 24.8279 41.4916 24.8279 41.5954 24.8279C42.1715 24.8279 42.4826 24.586 42.6727 23.9638C42.6727 23.9522 42.7822 23.5951 42.7822 23.5893L40.5931 17.5229H41.941L43.4736 22.4544H43.4965L45.0291 17.5229H46.3426L44.0726 23.9003C43.5543 25.3695 42.9551 25.8419 41.6992 25.8419C41.5954 25.8419 41.2843 25.8303 41.1923 25.8131Z" fill="#000008"/>
</g>
<defs>
<filter id="filter0_dd_107_4154" x="0.654855" y="0.293736" width="64.9911" height="48.4071" filterUnits="userSpaceOnUse" color-interpolation-filters="sRGB">
<feFlood flood-opacity="0" result="BackgroundImageFix"/>
<feColorMatrix in="SourceAlpha" type="matrix" values="0 0 0 0 0 0 0 0 0 0 0 0 0 0 0 0 0 0 127 0" result="hardAlpha"/>
<feOffset dy="0.448214"/>
<feGaussianBlur stdDeviation="2.24107"/>
<feColorMatrix type="matrix" values="0 0 0 0 0.717647 0 0 0 0 0.717647 0 0 0 0 0.717647 0 0 0 0.08 0"/>
<feBlend mode="normal" in2="BackgroundImageFix" result="effect1_dropShadow_107_4154"/>
<feColorMatrix in="SourceAlpha" type="matrix" values="0 0 0 0 0 0 0 0 0 0 0 0 0 0 0 0 0 0 127 0" result="hardAlpha"/>
<feOffset dy="4.48214"/>
<feGaussianBlur stdDeviation="4.48214"/>
<feColorMatrix type="matrix" values="0 0 0 0 0.717647 0 0 0 0 0.717647 0 0 0 0 0.717647 0 0 0 0.08 0"/>
<feBlend mode="normal" in2="effect1_dropShadow_107_4154" result="effect2_dropShadow_107_4154"/>
<feBlend mode="normal" in="SourceGraphic" in2="effect2_dropShadow_107_4154" result="shape"/>
</filter>
</defs>
</svg>
