<svg width="66" height="49" viewBox="0 0 66 49" fill="none" xmlns="http://www.w3.org/2000/svg">
<g filter="url(#filter0_dd_107_4156)">
<rect x="9.45703" y="5" width="46.6143" height="30.0304" rx="5.37857" fill="white"/>
<rect x="9.34498" y="4.88795" width="46.8384" height="30.2545" rx="5.49062" stroke="#D6DCE5" stroke-width="0.224107"/>
<path d="M31.7505 23.6141H30.702V15.4559H33.4815C34.1859 15.4559 34.7866 15.6907 35.278 16.1603C35.7804 16.6299 36.0316 17.2033 36.0316 17.8804C36.0316 18.5739 35.7804 19.1473 35.278 19.6114C34.7921 20.0756 34.1914 20.3049 33.4815 20.3049H31.7505V23.6141ZM31.7505 16.4606V19.3056H33.5033C33.9183 19.3056 34.2678 19.1637 34.5409 18.8852C34.8194 18.6067 34.9613 18.2681 34.9613 17.8859C34.9613 17.5091 34.8194 17.176 34.5409 16.8975C34.2678 16.6081 33.9238 16.4661 33.5033 16.4661H31.7505V16.4606Z" fill="#3C4043"/>
<path d="M38.7728 17.8476C39.5482 17.8476 40.1598 18.0551 40.6075 18.4702C41.0553 18.8852 41.2792 19.4531 41.2792 20.1739V23.6141H40.2799V22.8387H40.2362C39.8048 23.4776 39.226 23.7943 38.5052 23.7943C37.8881 23.7943 37.3748 23.6141 36.9598 23.2483C36.5448 22.8824 36.3373 22.4292 36.3373 21.8831C36.3373 21.3043 36.5557 20.8456 36.9926 20.507C37.4294 20.163 38.0137 19.9937 38.74 19.9937C39.3625 19.9937 39.8758 20.1084 40.2744 20.3377V20.0974C40.2744 19.7316 40.1325 19.4258 39.843 19.1691C39.5536 18.9125 39.2151 18.7869 38.8274 18.7869C38.2431 18.7869 37.7789 19.0326 37.4404 19.5295L36.5175 18.9507C37.0254 18.2135 37.7789 17.8476 38.7728 17.8476ZM37.4185 21.8995C37.4185 22.1725 37.5332 22.4018 37.768 22.582C37.9973 22.7623 38.2704 22.8551 38.5816 22.8551C39.0239 22.8551 39.4171 22.6913 39.7611 22.3636C40.1052 22.036 40.2799 21.6537 40.2799 21.2114C39.9523 20.9548 39.499 20.8237 38.9147 20.8237C38.4888 20.8237 38.1339 20.9275 37.8499 21.1295C37.5605 21.3425 37.4185 21.5991 37.4185 21.8995Z" fill="#3C4043"/>
<path d="M46.9802 18.0279L43.4854 26.066H42.4041L43.7038 23.2538L41.3994 18.0279H42.5407L44.2007 22.036H44.2225L45.8389 18.0279H46.9802Z" fill="#3C4043"/>
<path d="M27.5801 19.6442C27.5801 19.3024 27.5495 18.9753 27.4927 18.6607H23.098V20.4628L25.629 20.4633C25.5264 21.0629 25.196 21.574 24.6898 21.9148V23.0839H26.1964C27.0761 22.2697 27.5801 21.0662 27.5801 19.6442Z" fill="#4285F4"/>
<path d="M24.6903 21.9148C24.2709 22.1977 23.7309 22.3631 23.0991 22.3631C21.8786 22.3631 20.8433 21.5408 20.4725 20.4322H18.9184V21.638C19.6884 23.1659 21.2709 24.2143 23.0991 24.2143C24.3627 24.2143 25.4242 23.7987 26.1969 23.0834L24.6903 21.9148Z" fill="#34A853"/>
<path d="M20.3261 19.5377C20.3261 19.2265 20.378 18.9256 20.4725 18.6427V17.437H18.9184C18.6 18.0688 18.4209 18.782 18.4209 19.5377C18.4209 20.2935 18.6006 21.0066 18.9184 21.6384L20.4725 20.4327C20.378 20.1499 20.3261 19.849 20.3261 19.5377Z" fill="#FABB05"/>
<path d="M23.0991 16.7118C23.7888 16.7118 24.4064 16.9494 24.894 17.4135L26.2291 16.0795C25.4182 15.3243 24.361 14.8607 23.0991 14.8607C21.2714 14.8607 19.6883 15.9091 18.9184 17.437L20.4725 18.6427C20.8432 17.5342 21.8786 16.7118 23.0991 16.7118Z" fill="#E94235"/>
</g>
<defs>
<filter id="filter0_dd_107_4156" x="0.269113" y="0.293736" width="64.9911" height="48.4071" filterUnits="userSpaceOnUse" color-interpolation-filters="sRGB">
<feFlood flood-opacity="0" result="BackgroundImageFix"/>
<feColorMatrix in="SourceAlpha" type="matrix" values="0 0 0 0 0 0 0 0 0 0 0 0 0 0 0 0 0 0 127 0" result="hardAlpha"/>
<feOffset dy="0.448214"/>
<feGaussianBlur stdDeviation="2.24107"/>
<feColorMatrix type="matrix" values="0 0 0 0 0.717647 0 0 0 0 0.717647 0 0 0 0 0.717647 0 0 0 0.08 0"/>
<feBlend mode="normal" in2="BackgroundImageFix" result="effect1_dropShadow_107_4156"/>
<feColorMatrix in="SourceAlpha" type="matrix" values="0 0 0 0 0 0 0 0 0 0 0 0 0 0 0 0 0 0 127 0" result="hardAlpha"/>
<feOffset dy="4.48214"/>
<feGaussianBlur stdDeviation="4.48214"/>
<feColorMatrix type="matrix" values="0 0 0 0 0.717647 0 0 0 0 0.717647 0 0 0 0 0.717647 0 0 0 0.08 0"/>
<feBlend mode="normal" in2="effect1_dropShadow_107_4156" result="effect2_dropShadow_107_4156"/>
<feBlend mode="normal" in="SourceGraphic" in2="effect2_dropShadow_107_4156" result="shape"/>
</filter>
</defs>
</svg>
