<svg width="207" height="21" viewBox="0 0 207 21" fill="none" xmlns="http://www.w3.org/2000/svg">
<path fill-rule="evenodd" clip-rule="evenodd" d="M16.6481 19.1287C9.40945 19.1287 3.2308 15.1323 3.2308 10.7733C3.2308 6.43042 9.28013 2.35464 16.5961 2.35464C21.4053 2.35464 24.8682 3.77087 27.6867 5.98974H31.2281C30.1681 4.82513 29.0308 3.75539 27.2988 2.92113C24.3255 1.4578 20.4735 0.59259 16.6481 0.59259C7.47074 0.59259 0 5.20324 0 10.7578C0 16.3279 7.57464 20.8914 16.7 20.8914C20.4227 20.8914 24.068 20.0578 26.9893 18.6571C28.8252 17.7603 30.1173 16.5957 31.3586 15.3994H27.8172C25.0241 17.6183 21.4573 19.1287 16.6481 19.1287ZM53.3574 8.50733C51.1346 6.76076 48.1094 5.65939 44.3614 5.65939C37.64 5.65939 32.108 8.98031 32.108 13.0716C32.108 17.1621 37.6665 20.514 44.3614 20.514C48.2653 20.514 50.9788 19.5223 53.3574 17.697V20.183H56.2787V6.00521H53.3574V8.50733ZM44.2066 18.8771C39.0614 18.8771 35.0027 16.155 35.0027 13.087C35.0027 10.0339 39.036 7.2963 44.2066 7.2963C49.3507 7.2963 53.3574 10.0346 53.3574 13.087C53.3574 16.155 49.3242 18.8771 44.2066 18.8771ZM59.8201 20.183H62.9492V1.00098H59.8201V20.183ZM74.7627 17.9325L66.8521 6.00521H63.7495L73.2374 20.183H76.3908L85.8533 6.00521H82.8027L74.7627 17.9325ZM87.1454 20.183H90.2734V6.00521H87.1454V20.183ZM87.1454 4.17992H90.2734V1.00098H87.1454V4.17992ZM103.743 5.65872C100.795 5.65872 98.7014 6.60332 96.7627 7.86212V6.00521H93.8668V20.183H96.9428V11.5436C96.9174 9.2622 100.019 7.29563 103.794 7.29563C108.523 7.29563 110.902 9.79775 110.902 12.3786V20.1837H113.797V12.3786C113.798 8.69638 110.257 5.65872 103.743 5.65872ZM142.829 1.00098L128.611 12.0005V1.00098H125.535V20.183H128.611V14.9116L132.644 11.8592L142.907 20.183H146.812L134.608 10.3481L146.812 1.00098H142.829ZM147.948 20.183H151V1.00098H147.948V20.183ZM176.256 9.57707C174.136 7.16915 169.896 5.65872 165.423 5.65872C158.755 5.65872 153.118 9.0422 153.118 13.1018C153.118 17.1924 158.806 20.5133 165.477 20.5133C168.655 20.5133 171.785 19.7423 174.084 18.4048C175.481 17.6021 176.308 16.595 177.056 15.5407H173.775C172.119 17.508 169.198 18.8764 165.422 18.8764C163.123 18.8764 160.874 18.3099 159.168 17.3498C157.408 16.375 156.634 15.1781 156.297 13.7625H177.781C177.783 12.2837 177.445 10.8675 176.256 9.57707ZM156.402 12.1263C157.334 9.4674 160.771 7.29563 165.477 7.29563C169.432 7.29563 173.672 8.7751 174.603 12.1263H156.402ZM180.057 20.183H183.132V6.00521H180.057V20.183ZM180.057 4.24317H183.132V1.00098H180.057V4.24317ZM196.654 5.65872C193.654 5.65872 191.56 6.60332 189.595 7.86212V6.00521H186.648V20.183H189.751V11.5436C189.725 9.24673 192.905 7.29563 196.704 7.29563C201.411 7.29563 203.893 9.79775 203.893 12.3786V20.1837H206.788V12.3786C206.788 8.69638 203.193 5.65872 196.654 5.65872Z" fill="white"/>
</svg>
