<svg width="167" height="21" viewBox="0 0 167 21" fill="none" xmlns="http://www.w3.org/2000/svg">
<path fill-rule="evenodd" clip-rule="evenodd" d="M150.179 0.991685H166.482V2.5729C166.008 2.47611 165.512 2.42622 165.013 2.42513H155.642V9.8138H164.758C165.413 9.8138 165.996 9.77004 166.481 9.69551V11.2698C166.068 11.2109 165.499 11.181 164.794 11.181H155.642V18.821H164.733C165.232 18.821 165.826 18.7768 166.481 18.6806V20.3801H150.203C150.333 20.0812 150.399 19.7732 150.398 19.464V1.92984C150.398 1.54591 150.325 1.22828 150.179 0.991685ZM146.405 6.02349L141.695 6.00182C141.464 4.39071 139.947 2.83116 136.609 2.54386C129.459 2.15214 127.444 6.93217 127.626 10.4274C127.809 13.7965 128.694 18.9761 136.075 18.9761C139.171 18.9761 142.144 17.04 142.047 15.4072L146.405 15.3855C146.089 18.7547 139.741 20.7051 136.718 20.7718C126.389 20.9863 122.066 16.7964 121.848 10.8183C121.654 5.40339 125.296 0.59259 135.504 0.59259C144.244 0.666689 145.931 3.81438 146.405 6.02349ZM72.9408 18.1779L76.0611 16.5893C77.687 18.2225 79.0225 18.9683 82.2517 18.9683C85.5286 18.9683 88.285 17.7567 88.285 15.6143C88.285 14.5574 87.5802 13.693 86.1849 13.043C85.5528 12.7396 83.951 12.2153 81.4259 11.4838C77.6507 10.3832 73.9731 8.94931 73.9731 6.06812C73.9731 2.4325 79.0467 0.829187 84.3995 0.710455C87.5681 0.63679 91.5014 1.70148 93.091 2.89789L89.9231 4.38291C89.3581 3.7411 88.5181 3.2044 87.4923 2.82979C86.4665 2.45518 85.2932 2.25665 84.0969 2.25527C80.0541 2.25527 76.8498 5.10743 80.2 7.07301C81.0493 7.57523 82.7863 8.19576 85.4324 8.93458C89.6561 10.1392 93.2612 11.5796 93.2612 14.7646C93.2612 15.8652 92.7878 16.8922 91.853 17.8308C89.9722 19.7223 86.8278 20.6682 82.4339 20.6682C77.3838 20.6682 76.3892 19.9662 72.9408 18.1779ZM28.4893 0.991685H44.7782V2.5729C44.3051 2.47615 43.8094 2.42626 43.3103 2.42513H33.9396V9.8138H43.0554C43.7111 9.8138 44.2941 9.77004 44.7789 9.69551V11.2698C44.366 11.2109 43.7958 11.181 43.1046 11.181H33.9396V18.821H43.0312C43.5289 18.821 44.124 18.7768 44.7789 18.6806V20.3801H28.5143C28.6332 20.0801 28.6941 19.7726 28.6958 19.464V1.92984C28.6958 1.54591 28.6225 1.22828 28.4893 0.991685ZM0 0.991685H5.92368V1.16935C5.92368 1.33185 6.0084 1.54591 6.15434 1.81934L14.5049 17.1214L23.0754 1.75261C23.2085 1.49435 23.2818 1.24302 23.2818 0.991685H26.1586C25.8674 1.30195 25.6489 1.57581 25.515 1.81934L15.7308 19.5897C15.6339 19.7595 15.5492 20.0256 15.4766 20.3805H10.6208C10.5474 20.1119 10.4379 19.8474 10.2933 19.5897L0.704065 1.95974C0.482555 1.6346 0.251627 1.31186 0.0113903 0.991685H0ZM62.9145 11.0999C66.7986 10.6341 69.7729 8.82408 69.7729 6.23798C69.7729 2.84589 65.1114 0.991252 59.8918 0.991252H50.3509C50.4841 1.28721 50.5574 1.59748 50.5574 1.92247V19.4484C50.5574 19.8254 50.4841 20.143 50.3509 20.3796H56.0319C55.8929 20.0765 55.8235 19.7631 55.8254 19.4484V11.3954L57.6457 11.5137L67.1631 20.3796H72.8803L62.9145 11.0999ZM61.9314 9.62227C60.8998 10.0651 59.6611 10.2866 58.2409 10.2866H55.8133V2.4039H57.986C59.8441 2.4039 61.2878 2.68426 62.32 3.24542C63.7282 4.02195 64.4443 5.07103 64.4443 6.38618C64.4443 7.8049 63.6064 8.88388 61.9314 9.62271M120.901 19.5749L110.293 1.63474C110.175 1.42732 110.105 1.21086 110.086 0.991685H105.497C105.497 1.22092 105.436 1.46445 105.29 1.70841L95.0096 19.5749C94.875 19.8328 94.6572 20.0993 94.366 20.3801H97.3275C97.3161 20.0845 97.3766 19.8111 97.5105 19.5749L100.556 14.3061H112.27L115.281 19.5754C115.439 19.8627 115.511 20.1287 115.511 20.3801H121.654C121.301 20.0772 121.047 19.8037 120.901 19.5749ZM101.358 12.88L106.31 4.12464L111.397 12.88H101.358Z" fill="white"/>
</svg>
